<?xml version="1.0" standalone="no"?>
<!DOCTYPE svg PUBLIC "-//W3C//DTD SVG 20010904//EN"
 "http://www.w3.org/TR/2001/REC-SVG-20010904/DTD/svg10.dtd">
<svg version="1.0" xmlns="http://www.w3.org/2000/svg"
 width="270.000000pt" height="270.000000pt" viewBox="0 0 270.000000 270.000000"
 preserveAspectRatio="xMidYMid meet">
<metadata>
Created by potrace 1.11, written by Peter Selinger 2001-2013
</metadata>
<g transform="translate(0.000000,270.000000) scale(0.100000,-0.100000)"
fill="#000000" stroke="none">
<path d="M1220 2694 c-14 -2 -59 -9 -100 -15 -159 -23 -367 -106 -525 -210
-99 -65 -293 -258 -357 -355 -164 -248 -232 -469 -232 -759 -1 -178 11 -261
56 -405 69 -218 170 -384 337 -550 204 -203 426 -323 699 -377 109 -21 373
-24 482 -4 173 31 371 111 525 212 99 65 293 258 357 355 107 162 180 334 215
512 21 109 24 373 4 482 -31 173 -111 371 -212 525 -65 99 -258 293 -355 357
-161 107 -335 180 -506 213 -80 16 -336 28 -388 19z m-152 -729 c169 -40 257
-137 269 -297 14 -192 -74 -363 -228 -440 -90 -45 -170 -61 -312 -62 l-128 -1
-9 -35 c-5 -19 -20 -96 -35 -170 -15 -74 -31 -152 -36 -172 l-10 -38 -109 0
c-61 0 -110 2 -110 5 0 6 239 1141 247 1173 6 25 20 30 119 41 116 14 274 12
342 -4z m662 0 c68 -35 79 -135 20 -187 -26 -24 -39 -28 -90 -28 -51 0 -64 4
-90 28 -57 51 -49 144 14 183 38 23 106 25 146 4z m439 -217 c-11 -51 -22
-101 -25 -110 -5 -16 4 -18 95 -18 56 0 101 -3 101 -7 0 -5 -9 -44 -18 -88
l-18 -80 -102 -3 c-56 -1 -102 -6 -102 -10 0 -4 -20 -101 -45 -215 -64 -297
-62 -313 41 -305 32 3 67 9 77 13 15 6 17 0 17 -73 0 -78 -1 -80 -27 -91 -91
-36 -234 -41 -300 -12 -46 21 -69 56 -78 117 -5 32 57 367 102 552 5 21 2 22
-51 22 -64 0 -62 -5 -37 100 l18 75 56 3 56 3 17 80 17 79 71 21 c39 11 82 24
96 29 59 20 59 19 39 -82z m-461 -140 c-3 -7 -45 -203 -93 -435 l-89 -423
-103 0 c-81 0 -103 3 -103 14 0 14 168 821 175 844 3 8 35 12 111 12 81 0 105
-3 102 -12z"/>
<path d="M830 1772 l-35 -7 -36 -173 c-20 -94 -40 -183 -43 -197 l-6 -25 89 0
c195 0 300 81 301 233 0 74 -20 118 -68 145 -41 23 -143 35 -202 24z"/>
</g>
</svg>
